<svg width="59" height="65" viewBox="0 0 59 65" fill="none" xmlns="http://www.w3.org/2000/svg">
<path d="M43.1845 13.2089L43.0961 12.6626L42.5615 12.8058L11.6981 21.0779L11.1521 21.2242L11.364 21.7482L13.7162 27.5662L13.882 27.9762L14.3092 27.8618L27.5504 24.3138L16.1048 33.119L15.8175 33.34L15.9382 33.6818L17.9753 39.449L18.1289 39.8839L18.5747 39.7659L39.2975 34.2792L40.7487 41.3741L34.7226 44.9503L28.0576 45.0477L26.465 40.6204L26.3093 40.1876L25.8651 40.3067L19.634 41.9763L19.1073 42.1174L19.2934 42.6299L22.628 51.8124L22.7445 52.133L23.0855 52.1415L36.6714 52.4823L36.8181 52.486L36.9435 52.4098L48.4783 45.4056L48.7706 45.2281L48.7112 44.8914L45.3453 25.805L45.2505 25.2676L44.7235 25.4088L32.8773 28.583L43.9998 19.8625L44.2321 19.6804L44.1849 19.3891L43.1845 13.2089ZM18.3586 62.4811L0.720386 14.1453L48.6008 1.31581L57.4936 51.9949L39.6648 63.7269L18.3586 62.4811Z" stroke="#8BEC7B"/>
</svg>
