<svg width="136" height="145" viewBox="0 0 136 145" fill="none" xmlns="http://www.w3.org/2000/svg">
<path d="M134.84 5.61629L134.912 5.09881L134.391 5.05004L96.5574 1.50218L96.0373 1.45341L96.0114 1.97516L91.2686 97.3418L91.2448 97.8198L91.7213 97.8645L121.228 100.631L121.705 100.676L121.77 100.202L134.84 5.61629ZM121.154 139.401L121.651 139.448L121.698 138.95L123.916 115.295L123.963 114.798L123.465 114.751L86.8983 111.322L86.4005 111.275L86.3538 111.773L84.1357 135.427L84.089 135.925L84.5868 135.972L121.154 139.401Z" stroke="#8BEC7B"/>
<path d="M61.8837 70.0041L61.8879 69.4817L61.3658 69.5004L40.9821 70.2308L40.46 70.2495L40.5016 70.7702L44.5783 121.86L44.6164 122.337L45.0946 122.32L60.992 121.75L61.4703 121.733L61.4741 121.255L61.8837 70.0041ZM63.6359 142.391L64.1356 142.374L64.1177 141.874L63.661 129.13L63.6431 128.63L63.1434 128.648L43.4424 129.354L42.9427 129.372L42.9606 129.871L43.4173 142.616L43.4352 143.115L43.9349 143.097L63.6359 142.391Z" stroke="#8BEC7B"/>
<path d="M13.63 102.213L13.5517 101.696L13.0392 101.797L2.06899 103.956L1.55642 104.057L1.67963 104.564L8.30565 131.866L8.41852 132.331L8.88808 132.238L17.4438 130.555L17.9133 130.463L17.8416 129.989L13.63 102.213ZM20.6604 141.499L21.151 141.402L21.0544 140.912L19.7048 134.053L19.6083 133.563L19.1177 133.659L8.51497 135.745L8.02438 135.842L8.12091 136.332L9.47049 143.191L9.56703 143.682L10.0576 143.585L20.6604 141.499Z" stroke="#8BEC7B"/>
</svg>
