<svg width="192" height="192" viewBox="0 0 192 192" fill="none" xmlns="http://www.w3.org/2000/svg">
<g clip-path="url(#clip0_601_29574)">
<path fill-rule="evenodd" clip-rule="evenodd" d="M85.7538 74.2485L96.5118 0L107.787 74.2485L142.026 49.1883L116.89 85.0181L191.265 95.7879L116.89 106.765L142.026 142.18L106.649 116.602L96.5118 191.265L85.7538 116.602L48.2042 142.18L75.3061 106.765L0 95.7879L75.3061 85.0181L48.2042 49.1883L85.7538 74.2485ZM96.2014 114.013C106.313 114.013 114.511 105.807 114.511 95.6844C114.511 85.5615 106.313 77.3552 96.2014 77.3552C86.0895 77.3552 77.8921 85.5615 77.8921 95.6844C77.8921 105.807 86.0895 114.013 96.2014 114.013Z" fill="#33B5E5"/>
<path d="M30.8258 87.5035L13.9647 88.7463C19.2403 36.5547 62.6861 12.9443 91.5467 12.9443L87.4089 29.7202C55.8589 33.9659 33.7222 59.9581 30.8258 87.5035Z" fill="#33B5E5"/>
<path d="M30.8258 103.037L13.9647 101.794C19.2403 153.985 62.6861 177.596 91.5467 177.596L87.4089 160.82C55.8589 156.574 33.7222 130.582 30.8258 103.037Z" fill="#33B5E5"/>
<path d="M162.198 87.5035L179.059 88.7463C173.783 36.5547 130.337 12.9443 101.477 12.9443L105.615 29.7202C137.165 33.9659 159.301 59.9581 162.198 87.5035Z" fill="#33B5E5"/>
<path d="M162.198 103.037L179.059 101.794C173.783 153.985 130.337 177.596 101.477 177.596L105.615 160.82C137.165 156.574 159.301 130.582 162.198 103.037Z" fill="#33B5E5"/>
</g>
<defs>
<clipPath id="clip0_601_29574">
<rect width="192" height="192" fill="white"/>
</clipPath>
</defs>
</svg>
