<svg width="84" height="84" viewBox="0 0 84 84" fill="none" xmlns="http://www.w3.org/2000/svg">
<g clip-path="url(#clip0_896_871)">
<path d="M40.1317 32.1117C31.9449 27.5797 29.2531 17.7827 33.4687 9.82759L72.283 32.3402L72.2831 32.3403C72.5323 32.4846 72.7505 32.6767 72.9254 32.9055L73.3226 32.6018L72.9254 32.9055C73.1003 33.1342 73.2284 33.3952 73.3023 33.6735C73.3763 33.9518 73.3947 34.2419 73.3565 34.5273L73.8521 34.5937L73.3565 34.5273C73.3183 34.8127 73.2242 35.0878 73.0797 35.3368L73.0796 35.337L54.9286 66.6314C54.9639 63.6663 54.3016 60.7235 52.9821 58.0452C51.4134 54.8609 48.9821 52.1853 45.9697 50.3203L52.1492 39.6621L52.4 39.2297L51.9676 38.9788L40.1405 32.1167L40.1405 32.1166L40.1317 32.1117ZM44.0571 51.9862C52.2071 56.6294 54.685 66.5032 50.5454 74.173C43.3237 70.0134 36.1026 65.8141 28.8791 61.6133C23.1596 58.2872 17.4385 54.9601 11.7144 51.6513C11.4655 51.5069 11.2474 51.315 11.0726 51.0864C10.8978 50.8576 10.7697 50.5966 10.6957 50.3183C10.6217 50.04 10.6033 49.7499 10.6415 49.4645C10.6797 49.1791 10.7738 48.904 10.9184 48.655L10.9185 48.6548L29.0954 17.3119C28.9871 23.7113 32.1427 29.9676 38.0332 33.6592L31.8454 44.3276L31.5945 44.7602L32.0271 45.011L44.0538 51.9843L44.0571 51.9862Z" stroke="#8BEC7B"/>
</g>
<defs>
<clipPath id="clip0_896_871">
<rect width="68" height="68" fill="white" transform="translate(0.406738 17.8755) rotate(-14.8859)"/>
</clipPath>
</defs>
</svg>
