<svg width="42" height="42" viewBox="0 0 42 42" fill="none" xmlns="http://www.w3.org/2000/svg">
<path d="M26.9959 39.9021C26.6357 40.1814 26.1882 40.3904 25.7457 40.5011L25.7156 40.5083C25.2476 40.6207 24.7757 40.6039 24.2997 40.48L18.8253 38.789C19.0845 38.6239 19.2882 38.4864 19.4914 38.3304C19.7681 38.118 20.0369 37.8765 20.4455 37.4937L24.7757 38.8454L24.7937 38.851L24.812 38.8553C25.0998 38.9218 25.4793 38.8685 25.7267 38.6145L38.5638 26.419C38.8645 26.1567 38.9163 25.782 38.8405 25.4664L34.7055 8.24788C34.6297 7.93211 34.4133 7.62163 34.0259 7.52464L17.0477 2.5221L17.0335 2.51791L17.0191 2.51457C16.7315 2.44805 16.3523 2.50122 16.1048 2.75487L3.25852 14.9137C2.94479 15.1884 2.92008 15.6095 2.98176 15.8663L7.11667 33.0847C7.17834 33.3415 7.39146 33.7053 7.79552 33.8077L12.427 35.1781L12.4399 35.1819L12.4529 35.185C13.8114 35.5089 14.8827 35.2383 15.5717 34.5984C16.2486 33.9698 16.4845 33.0455 16.2875 32.2255L12.2155 15.269L14.0491 14.8287L18.1211 31.785C18.4549 33.1751 18.3251 34.2997 17.8447 35.1379C17.3671 35.9711 16.499 36.5983 15.1971 36.9109C14.7693 37.0137 14.4333 37.0933 13.9516 37.0993C13.4651 37.1055 12.8095 37.0359 11.7723 36.8053L7.32325 35.5128C7.32299 35.5127 7.32273 35.5126 7.32247 35.5125C6.38868 35.2366 5.66958 34.4742 5.44194 33.5263L1.30706 16.308C1.07936 15.3598 1.37405 14.3537 2.08114 13.6839L2.08165 13.6834L14.9339 1.47352C15.6152 0.846341 16.704 0.584871 17.5958 0.834252C17.597 0.834561 17.5981 0.83487 17.5992 0.83518L34.591 5.87639L34.5918 5.87661C35.5258 6.1522 36.2453 6.91473 36.473 7.86307L40.6079 25.0815C40.8356 26.0297 40.5409 27.0357 39.8339 27.7055L39.8333 27.706L26.9959 39.9021ZM18.3574 39.0879C18.3575 39.0878 18.3576 39.0878 18.3576 39.0877L18.3574 39.0879ZM18.8649 24.3385L20.7098 23.8954C21.1161 24.8829 21.6582 25.695 22.7088 26.0718C23.7219 26.4352 25.1116 26.3542 27.1078 25.8748C28.6946 25.4938 29.8766 25.0244 30.6097 24.3763C30.9859 24.0437 31.2525 23.6567 31.386 23.2077C31.5191 22.7606 31.5092 22.2891 31.3926 21.8035C31.3281 21.5352 31.2268 21.2182 30.983 20.9419C30.7342 20.6599 30.3845 20.4722 29.9194 20.3607C29.0248 20.1463 27.5479 20.1801 25.0438 20.5251C22.9588 20.8088 21.3226 20.8623 20.128 20.4915C19.5434 20.31 19.0762 20.0299 18.712 19.6312C18.3467 19.2312 18.0612 18.6856 17.8815 17.9374C17.5556 16.5804 17.8631 15.39 18.7253 14.4066C19.6042 13.4041 21.0902 12.5849 23.1637 12.087C25.516 11.5221 27.2817 11.5277 28.5741 12.0376C29.8267 12.5318 30.7129 13.5317 31.2591 15.1585L29.4434 15.5945C28.9386 14.5694 28.2871 13.8688 27.2901 13.5694C26.3237 13.2793 25.115 13.3948 23.567 13.7665C21.8099 14.1885 20.7865 14.7529 20.2477 15.4211C19.679 16.1265 19.7192 16.8557 19.8466 17.3863C19.9182 17.6845 20.0293 18.0114 20.2926 18.2752C20.5593 18.5425 20.9193 18.684 21.3614 18.756C22.2137 18.8947 23.6242 18.8088 25.9959 18.5527C28.3752 18.2983 30.0538 18.2724 31.2223 18.6571C31.7899 18.844 32.2253 19.1248 32.5629 19.5209C32.9034 19.9202 33.168 20.4644 33.3479 21.2124C33.6882 22.7073 33.3519 23.9913 32.4041 25.0481C31.4363 26.1272 29.7961 27.0055 27.4737 27.5632C24.2645 28.3339 22.2555 28.0408 20.9973 27.3387C19.7621 26.6496 19.1536 25.5116 18.8649 24.3385Z" stroke="#8BEC7B"/>
</svg>
