<svg width="97" height="90" viewBox="0 0 97 90" fill="none" xmlns="http://www.w3.org/2000/svg">
<path d="M31.7943 68.5848C32.1469 71.7915 32.8492 74.5749 33.7935 76.6656C34.7246 78.7269 35.946 80.2333 37.4089 80.6718L37.4114 80.6725C38.0608 80.8635 38.796 80.8573 39.5825 80.692L39.5825 80.6921L39.5933 80.6896C41.3907 80.27 43.3847 79.0532 45.4291 77.2043C47.4807 75.3488 49.6165 72.8261 51.6951 69.7398L51.979 69.3184L51.5531 69.0414C48.7417 67.2126 45.8645 65.0413 43.0014 62.5759L42.8336 62.4314L42.6138 62.4586C38.9089 62.9172 35.3348 63.1252 32.0119 63.0896L31.499 63.0841L31.5066 63.597C31.5322 65.3209 31.6152 67.0044 31.7943 68.5848ZM31.7943 68.5848C31.7943 68.5847 31.7943 68.5846 31.7942 68.5844L32.2913 68.5298L31.7944 68.5861C31.7944 68.5857 31.7943 68.5852 31.7943 68.5848ZM73.4658 58.7696C72.9299 57.2885 72.2658 55.7734 71.5083 54.2185L71.2847 53.7595L70.8305 53.9927C67.8721 55.5114 64.5764 56.9072 61.0353 58.1405L60.824 58.2141L60.7381 58.4207C59.2962 61.8882 57.6747 65.0927 55.9788 67.9753L55.7213 68.4131L56.1631 68.6637C59.39 70.4944 62.4232 71.7971 65.0844 72.5435C67.7358 73.2872 70.0611 73.4908 71.8497 73.0732C72.641 72.8885 73.3363 72.5824 73.8417 72.0936C74.9454 71.0455 75.363 69.1542 75.2764 66.8952C75.1886 64.6029 74.5777 61.7986 73.4658 58.7696ZM73.4658 58.7696C73.466 58.77 73.4661 58.7704 73.4662 58.7707L72.9961 58.9408L73.4654 58.7685C73.4656 58.7689 73.4657 58.7692 73.4658 58.7696ZM67.5508 26.0905L67.5539 26.5547L68.0171 26.586C73.379 26.949 77.9471 27.9827 81.3103 29.5553C84.6837 31.1326 86.7628 33.2098 87.3254 35.6194C87.8863 38.0215 86.9483 40.799 84.6377 43.7012C82.3342 46.5946 78.7203 49.5385 74.1059 52.2306L73.7048 52.4646L73.9086 52.8819C76.2583 57.6936 77.6379 62.1534 77.9531 65.8414C78.2693 69.5403 77.5105 72.3706 75.7074 74.058C74.8586 74.8514 73.7818 75.3928 72.4955 75.6931C70.3826 76.1865 67.7242 76.0189 64.6836 75.2062C61.6481 74.395 58.2629 72.9491 54.7136 70.9222L54.3093 70.6914L54.0502 71.0782C51.769 74.4835 49.3776 77.295 47.018 79.3785C44.6542 81.4657 42.3472 82.8003 40.2354 83.2934C38.9483 83.5939 37.7446 83.5846 36.6508 83.2468L36.6472 83.2457C34.2751 82.5328 32.3326 80.3287 30.9682 76.8659C29.6079 73.4134 28.8591 68.7935 28.8234 63.4244L28.8203 62.9602L28.3572 62.9288C22.9953 62.5659 18.4271 61.5322 15.0639 59.9596C11.6906 58.3822 9.61141 56.3051 9.04882 53.8955C8.48804 51.4937 9.42659 48.7204 11.7416 45.8192C14.0497 42.9267 17.6718 39.9807 22.3009 37.2766L22.7016 37.0425L22.498 36.6254C20.1482 31.8137 18.7687 27.3539 18.4534 23.6659C18.1373 19.967 18.8961 17.1367 20.6992 15.4493C21.4393 14.7575 22.3528 14.2573 23.4273 13.9414L24.0419 16.5739C23.451 16.7623 22.9324 17.0345 22.5326 17.4212C21.4289 18.4693 21.0112 20.3606 21.0978 22.6197C21.1857 24.9123 21.7967 27.7169 22.9088 30.7463L22.9098 30.7491C23.4599 32.2205 24.1066 33.7379 24.8626 35.2812L25.0868 35.7387L25.54 35.506C28.4984 33.9873 31.7941 32.5915 35.3351 31.3582L35.5464 31.2846L35.6324 31.078C37.0742 27.6105 38.6957 24.406 40.3916 21.5234L40.6492 21.0856L40.2074 20.835C36.9805 19.0043 33.9473 17.7016 31.2861 16.9552C28.8709 16.2778 26.7264 16.0485 25.0116 16.3286L24.3972 13.6972C26.4255 13.3338 28.9091 13.5339 31.7192 14.2849C34.7546 15.0962 38.1399 16.5421 41.6892 18.5689L42.0935 18.7998L42.3525 18.413C44.6338 15.0077 47.0252 12.1962 49.3848 10.1127C51.5634 8.18901 53.6938 6.90456 55.6676 6.32909L56.282 8.96056C54.6177 9.47318 52.8022 10.631 50.9452 12.3106C48.8935 14.1661 46.7577 16.6887 44.6791 19.775L44.3953 20.1964L44.8212 20.4735C47.6325 22.3022 50.5097 24.4736 53.3728 26.9389L53.5406 27.0834L53.7605 27.0562C57.4654 26.5977 61.0394 26.3896 64.3623 26.4253L64.8753 26.4308L64.8676 25.9179C64.842 24.1938 64.759 22.51 64.5799 20.9293C64.2273 17.723 63.525 14.9398 62.5807 12.8493C61.6496 10.788 60.4282 9.28158 58.9653 8.84306L58.9654 8.84297L58.9561 8.8404C58.4374 8.69565 57.8828 8.66474 57.2767 8.74968L56.6616 6.11505C57.7457 5.9294 58.7757 5.97536 59.7234 6.26806L59.727 6.26915C62.0992 6.98204 64.0417 9.18613 65.406 12.649C66.7664 16.1015 67.5151 20.7214 67.5508 26.0905ZM64.7645 29.6697L64.7905 29.15L64.2702 29.1447C62.0157 29.1219 59.6889 29.2195 57.303 29.417L56.2038 29.508L56.9966 30.2747C58.0723 31.3149 59.151 32.383 60.1873 33.4924L60.1905 33.4958C61.2429 34.6016 62.2326 35.7238 63.1923 36.8561L63.91 37.7029L64.0686 36.6043C64.4089 34.2479 64.6523 31.9108 64.7645 29.6697ZM61.3608 48.7164L61.3614 48.7145C62.0832 46.302 62.6958 43.8646 63.2107 41.4512L63.2598 41.2212L63.114 41.0368C61.5829 39.1 59.9574 37.2014 58.2251 35.3612L58.2246 35.3607C56.4504 33.4813 54.6533 31.7263 52.8533 30.1081L52.6781 29.9505L52.4451 29.9854C49.9976 30.3515 47.5186 30.8104 45.0645 31.3834C42.5942 31.9601 40.1674 32.6467 37.7965 33.4228L37.5744 33.4956L37.4877 33.7127C36.5893 35.9634 35.7751 38.3461 35.021 40.8308L35.0204 40.8327C34.2992 43.2432 33.67 45.6853 33.1704 48.099L33.1231 48.3274L33.2678 48.5104C34.7989 50.4471 36.4244 52.3458 38.1566 54.186L38.1571 54.1865C39.9314 56.0658 41.7284 57.8209 43.5285 59.4391L43.7037 59.5966L43.9367 59.5618C46.3841 59.1957 48.8632 58.7368 51.3173 58.1638C53.7875 57.587 56.2143 56.9005 58.5852 56.1243L58.8074 56.0516L58.894 55.8345C59.7925 53.5838 60.6067 51.2011 61.3608 48.7164ZM66.0189 44.966L65.3895 44.0703L65.1247 45.1325C64.7652 46.5747 64.3781 48.0366 63.9398 49.4916L63.9391 49.4941C63.5049 50.964 63.0144 52.4156 62.5143 53.8407L62.1524 54.872L63.1693 54.4715C65.4143 53.5875 67.556 52.6246 69.5657 51.6065L70.0323 51.3701L69.7752 50.9147C68.6633 48.9447 67.4063 46.9402 66.0189 44.966ZM52.9826 66.7297L53.4189 67.0104L53.6833 66.5641C54.8162 64.6521 55.9235 62.5573 56.9441 60.3111L57.395 59.3186L56.3486 59.6243C54.9082 60.0452 53.4225 60.426 51.9108 60.7789C50.4186 61.1273 48.9292 61.4243 47.4638 61.6985L46.3921 61.899L47.2434 62.5803C49.1827 64.1325 51.1024 65.5199 52.9826 66.7297ZM39.0551 60.1017L40.1543 60.0107L39.3614 59.2439C38.2884 58.2063 37.2238 57.1326 36.1676 56.0228C35.1152 54.917 34.1255 53.7949 33.1658 52.6625L32.4481 51.8158L32.2895 52.9143C31.9491 55.2708 31.7058 57.6079 31.5936 59.8489L31.5675 60.3686L32.0879 60.3739C34.3424 60.3968 36.6691 60.2992 39.0551 60.1017ZM43.3755 22.7889L42.9392 22.5082L42.6748 22.9545C41.5419 24.8666 40.4346 26.9613 39.414 29.2075L38.9631 30.2L40.0095 29.8943C41.4499 29.4735 42.9355 29.0927 44.4473 28.7397C45.9395 28.3913 47.4289 28.0943 48.8942 27.8201L49.966 27.6196L49.1147 26.9383C47.1754 25.3862 45.2557 23.9987 43.3755 22.7889ZM33.8438 35.6779L34.2057 34.6467L33.1888 35.0471C30.9438 35.9312 28.8032 36.8936 26.7918 37.8944L26.3202 38.129L26.5791 38.5878C27.691 40.5578 28.9481 42.5623 30.3354 44.5365L30.9648 45.4322L31.2296 44.3699C31.5887 42.9297 31.9795 41.4835 32.4183 40.0271L32.419 40.0245C32.8532 38.5546 33.3437 37.1031 33.8438 35.6779ZM23.3872 59.6371L23.3877 59.6372C24.9513 59.9098 26.6146 60.1062 28.3443 60.2344L28.8549 60.2723L28.8806 59.7609C29.0487 56.4252 29.4757 52.8905 30.1737 49.205L30.215 48.987L30.081 48.8101C27.8033 45.8023 25.8352 42.8095 24.1873 39.8805L23.9357 39.4332L23.4951 39.6965C22.0388 40.5667 20.6299 41.4632 19.3621 42.3983C16.7574 44.2978 14.69 46.2918 13.3436 48.1518C12.0161 49.9857 11.3135 51.7964 11.6611 53.2856C12.0089 54.7751 13.4403 56.0834 15.4419 57.1376C17.4723 58.207 20.2089 59.0793 23.3872 59.6371ZM72.1707 49.6381L72.4224 50.0855L72.863 49.8222C74.3192 48.952 75.7281 48.0556 76.9958 47.1205C79.6007 45.2208 81.668 43.2269 83.0163 41.3666C84.346 39.5322 85.0516 37.722 84.7138 36.2324L84.7131 36.2293C84.3653 34.7398 82.9339 33.4314 80.9323 32.3772C78.902 31.3079 76.1653 30.4355 72.987 29.8778L72.9845 29.8774C71.4061 29.6088 69.7437 29.4125 68.0138 29.2842L67.5032 29.2464L67.4775 29.7577C67.3093 33.0935 66.8823 36.6282 66.1844 40.3136L66.1431 40.5316L66.277 40.7085C68.5548 43.7164 70.5229 46.7091 72.1707 49.6381Z" stroke="#8BEC7B"/>
<path d="M55.0663 43.1513C55.9552 46.9583 53.5888 50.7654 49.7804 51.6546C45.9721 52.5437 42.1645 50.1781 41.2756 46.3712C40.3867 42.5642 42.7532 38.7571 46.5615 37.8679C50.3698 36.9787 54.1775 39.3443 55.0663 43.1513Z" stroke="#8BEC7B"/>
</svg>
