<svg width="64" height="64" viewBox="0 0 64 64" fill="none" xmlns="http://www.w3.org/2000/svg">
<path d="M14.32 36.4034C13.8446 39.2961 11.0912 41.2722 8.19846 40.7968C5.30576 40.3213 3.32968 37.5679 3.80512 34.6752C4.28057 31.7825 7.034 29.8064 9.92671 30.2819L15.1842 31.146L14.32 36.4034Z" stroke="#8BEC7B"/>
<path d="M18.2047 37.0419C18.6801 34.1492 21.4335 32.1731 24.3262 32.6486C27.2189 33.124 29.195 35.8774 28.7196 38.7701L26.3529 53.1695C25.8774 56.0622 23.124 58.0383 20.2313 57.5629C17.3386 57.0874 15.3625 54.334 15.838 51.4413L18.2047 37.0419Z" stroke="#8BEC7B"/>
<path d="M27.3385 14.3202C24.4458 13.8448 22.4698 11.0913 22.9452 8.19863C23.4206 5.30593 26.1741 3.32985 29.0668 3.80529C31.9595 4.28074 33.9356 7.03417 33.4601 9.92688L32.596 15.1843L27.3385 14.3202Z" stroke="#8BEC7B"/>
<path d="M26.7002 18.2047C29.5929 18.6802 31.569 21.4336 31.0935 24.3263C30.6181 27.219 27.8647 29.1951 24.972 28.7196L10.5726 26.3529C7.67987 25.8775 5.70379 23.1241 6.17924 20.2313C6.65469 17.3386 9.40812 15.3626 12.3008 15.838L26.7002 18.2047Z" stroke="#8BEC7B"/>
<path d="M49.4219 27.3388C49.8974 24.4461 52.6508 22.47 55.5435 22.9454C58.4362 23.4209 60.4123 26.1743 59.9368 29.067C59.4614 31.9597 56.708 33.9358 53.8153 33.4603L48.5578 32.5962L49.4219 27.3388Z" stroke="#8BEC7B"/>
<path d="M45.5376 26.7003C45.0621 29.593 42.3087 31.5691 39.416 31.0936C36.5233 30.6182 34.5472 27.8648 35.0227 24.972L37.3894 10.5727C37.8648 7.67995 40.6182 5.70387 43.5109 6.17932C46.4036 6.65476 48.3797 9.4082 47.9043 12.3009L45.5376 26.7003Z" stroke="#8BEC7B"/>
<path d="M36.4035 49.422C39.2962 49.8974 41.2723 52.6509 40.7968 55.5436C40.3214 58.4363 37.5679 60.4124 34.6752 59.9369C31.7825 59.4615 29.8065 56.708 30.2819 53.8153L31.146 48.5579L36.4035 49.422Z" stroke="#8BEC7B"/>
<path d="M37.0419 45.5375C34.1492 45.0621 32.1731 42.3086 32.6486 39.4159C33.124 36.5232 35.8774 34.5471 38.7701 35.0226L53.1695 37.3893C56.0622 37.8647 58.0383 40.6182 57.5629 43.5109C57.0874 46.4036 54.334 48.3796 51.4413 47.9042L37.0419 45.5375Z" stroke="#8BEC7B"/>
</svg>
