<svg width="378" height="382" viewBox="0 0 378 382" fill="none" xmlns="http://www.w3.org/2000/svg">
<path d="M303.936 204.87L362.503 270.7L274.404 269.196L273.842 269.187L273.898 269.745L282.585 357.428L212.196 304.428L211.747 304.09L211.463 304.575L166.953 380.618L141.16 296.366L140.995 295.829L140.481 296.054L59.7745 331.412L88.4292 248.09L88.6118 247.559L88.0632 247.439L1.9874 228.606L74.1452 178.039L74.6051 177.717L74.2318 177.298L15.6646 111.467L103.764 112.971L104.325 112.981L104.27 112.422L95.5821 24.7395L165.972 77.7398L166.42 78.0776L166.704 77.593L211.214 1.5496L237.008 85.8017L237.172 86.3387L237.686 86.1133L318.393 50.7553L289.738 134.078L289.556 134.609L290.104 134.729L376.18 153.562L304.022 204.128L303.562 204.451L303.936 204.87Z" fill="#202125" stroke="#8BEC7B"/>
</svg>
